<svg xmlns="http://www.w3.org/2000/svg" version="1.1" xmlns:xlink="http://www.w3.org/1999/xlink" xmlns:svgjs="http://svgjs.com/svgjs" width="1440" height="560" preserveAspectRatio="none" viewBox="0 0 1440 560"><g mask="url(&quot;#SvgjsMask1000&quot;)" fill="none"><rect width="1440" height="560" x="0" y="0" fill="#0e2a47"></rect><circle r="4.915" cx="1135.795" cy="276.695" filter="url(#SvgjsFilter1001)" fill="rgba(51, 121, 194, 0.58)"></circle><circle r="4.775" cx="489.655" cy="91.685" filter="url(#SvgjsFilter1001)" fill="rgba(51, 121, 194, 0.58)"></circle><circle r="7.135" cx="1365.395" cy="530.005" filter="url(#SvgjsFilter1001)" fill="rgba(51, 121, 194, 0.58)"></circle><circle r="4.76" cx="323.71" cy="107.26" filter="url(#SvgjsFilter1001)" fill="rgba(51, 121, 194, 0.58)"></circle><circle r="5.155" cx="246.255" cy="340.34499999999997" filter="url(#SvgjsFilter1001)" fill="rgba(51, 121, 194, 0.58)"></circle><circle r="6.59" cx="371.58" cy="185.20000000000002" filter="url(#SvgjsFilter1001)" fill="rgba(51, 121, 194, 0.58)"></circle><circle r="5.78" cx="909.0899999999999" cy="271" filter="url(#SvgjsFilter1001)" fill="rgba(51, 121, 194, 0.58)"></circle><circle r="8.83" cx="461.58" cy="225.37" filter="url(#SvgjsFilter1001)" fill="rgba(51, 121, 194, 0.58)"></circle><circle r="9.145" cx="1133.215" cy="235.905" filter="url(#SvgjsFilter1001)" fill="rgba(51, 121, 194, 0.58)"></circle><circle r="9.155" cx="254.275" cy="75.465" filter="url(#SvgjsFilter1001)" fill="rgba(51, 121, 194, 0.58)"></circle><circle r="8.465" cx="59.30500000000001" cy="508.455" filter="url(#SvgjsFilter1001)" fill="rgba(51, 121, 194, 0.58)"></circle><circle r="8.285" cx="109.175" cy="231.505" filter="url(#SvgjsFilter1001)" fill="rgba(51, 121, 194, 0.58)"></circle><circle r="5.33" cx="113.52" cy="179.61" filter="url(#SvgjsFilter1001)" fill="rgba(51, 121, 194, 0.58)"></circle><circle r="5.515" cx="177.11499999999998" cy="538.0749999999999" filter="url(#SvgjsFilter1001)" fill="rgba(51, 121, 194, 0.58)"></circle><circle r="5.395" cx="1152.885" cy="219.235" filter="url(#SvgjsFilter1001)" fill="rgba(51, 121, 194, 0.58)"></circle><circle r="5.095" cx="211.73499999999999" cy="165.225" filter="url(#SvgjsFilter1001)" fill="rgba(51, 121, 194, 0.58)"></circle><circle r="8.13" cx="1274.8400000000001" cy="337.85" filter="url(#SvgjsFilter1001)" fill="rgba(51, 121, 194, 0.58)"></circle><circle r="8.87" cx="889.38" cy="200.73000000000002" filter="url(#SvgjsFilter1001)" fill="rgba(51, 121, 194, 0.58)"></circle><circle r="6.375" cx="425.515" cy="295.565" filter="url(#SvgjsFilter1001)" fill="rgba(51, 121, 194, 0.58)"></circle><circle r="6.265" cx="83.425" cy="36.375" filter="url(#SvgjsFilter1001)" fill="rgba(51, 121, 194, 0.58)"></circle><path d="M1056.5 207.8L1047.2 193.8 1057.3 192.8C1058.4 192.8 1059.4 191.7 1059.6 190.2 1059.2 188.9 1058.1 187.8 1056.8 188.3L1044.2 189.1 1036.5 178.5 1062.8 176.8C1064.1 176.3 1065.2 175.2 1065.2 174.2 1064.9 172.5 1063.8 171.4 1062.5 171.9L1033.4 173.9 1022.1 157.3 1045.1 158.2 1030 140.9 1049.9 139.2 1066.7 163.2C1066.5 163.6 1066.9 163.8 1067.3 164 1068.2 164.5 1069.3 164.4 1070.1 163.8 1071 163.1 1071.2 161.6 1070.7 160.3L1055.5 138.7 1068.6 138 1075.9 148.4C1076.1 149.1 1076.5 149.3 1077 149.5 1077.4 149.7 1078.5 149.7 1079.3 149 1080.2 148.4 1080.4 146.9 1079.7 146L1074.2 137.5 1090.9 135.9C1092.4 136.1 1093 134.8 1093.2 133.3 1093.2 132.2 1092.1 131.2 1090.4 131.4L1073.9 132.6 1078.2 123.5C1078.8 122.2 1078 120.7 1077.1 120.3 1075.8 119.7 1074.5 120.1 1073.9 121.4L1068.3 133.1 1055.2 133.8 1066.4 110.4C1067 109.1 1066.6 107.8 1065.3 107.2 1064.4 106.8 1062.7 107 1062.1 108.3L1049.6 134.3 1029.7 135.9 1041.6 116.6 1019.4 120.9 1028.1 102.7 1056.8 100.5C1058.5 100.2 1059.1 98.9 1059.1 97.8 1059.1 96.8 1058 95.7 1056.5 95.5L1030.3 97.9 1035.9 86.2 1048.8 84.9C1050.3 85.1 1051.3 84 1051.1 82.3 1051.1 81.2 1050 80.2 1048.3 80.4L1038.4 81 1045.7 65.9C1046.3 64.6 1045.8 63.3 1044.5 62.7S1042 62.5 1041.3 63.8L1034.1 79 1028.4 70.9C1027.5 69.4 1026 69.2 1025.1 69.9 1023.6 70.8 1023.4 72.3 1024.5 73.3L1031.6 84.2 1026 95.8 1011.5 74C1010.4 72.9 1008.9 72.7 1008 73.4 1006.5 74.3 1006.3 75.8 1007.4 76.8L1023.7 100.6 1015 118.8 1004.4 98.8 996.8 120.2 985.6 103.6 998 77.6C998.6 76.4 997.7 74.9 996.9 74.4 995.6 73.8 994.3 74.3 993.7 75.6L982.3 99.4 974.8 88.4 980.4 76.7C981 75.4 980.5 74.1 979.2 73.5 978.4 73.1 976.7 73.3 976 74.6L971.7 83.7 962.2 70.1C961.3 68.6 959.8 68.4 958.8 69.5 957.9 70.2 957.3 71.5 958.4 72.5L967.7 86.5 957.6 87.6C956.5 87.6 955.5 88.7 955.5 89.8 955.5 90.8 956.2 91.7 956.6 91.9 957 92.1 957.5 92.3 958.1 92.1L970.7 91.2 978.4 101.8 952.1 103.6C950.8 104 949.7 105.1 949.8 106.2 949.8 107.3 950.4 108.1 951.3 108.5 951.7 108.7 951.7 108.7 952.4 108.5L981.5 106.5 992.8 123 969.8 122.2 984.9 139.5 965 141.1 948.2 117.2C947.6 116.3 946.3 115.7 944.8 116.6 943.9 117.2 943.7 118.7 944.2 120L959.4 141.7 946.3 142.3 939 131.9C938.6 130.6 937.1 130.4 935.6 131.3 934.7 132 934.6 133.5 935 134.8L940.7 142.8 924 144.4C922.5 144.2 921.9 145.5 921.7 147 921.9 147.7 922.6 148.5 923 148.7 923.4 148.9 923.9 149.1 924.5 148.9L941 147.8 936.7 156.9C936.1 158.2 936.9 159.6 937.8 160.1L937.8 160.1C939.1 160.7 940.4 160.2 941 158.9L946.6 147.2 959.7 146.6 948.5 170C947.9 171.3 948.3 172.5 949.6 173.2S952.2 173.3 952.8 172L965.3 146.1 985.2 144.4 973.3 163.7 995.6 159.5 986.8 177.7 958.1 179.9C956.4 180.1 955.8 181.4 955.8 182.5 955.8 183.6 956.9 184.6 958.4 184.8L984.4 182.9 979 194.1 966.1 195.4C964.6 195.2 963.6 196.3 963.8 198 963.8 199.1 964.9 200.2 966.4 200.4L976.5 199.3 969.2 214.5C968.6 215.8 969.1 217.1 970.4 217.7S972.9 217.9 973.6 216.6L980.8 201.4 986.5 209.5C986.8 210.1 987.2 210.3 987.6 210.5 988.5 210.9 989.1 210.7 989.8 210.5 991.3 209.6 991.5 208.1 990.4 207L983.3 196.2 988.9 184.5 1003.5 206.4C1003.9 206.6 1004.3 206.8 1004.7 207 1005.6 207.4 1006.3 207.2 1006.9 207 1008.4 206.1 1008.6 204.6 1007.5 203.5L991.2 179.7 999.9 161.6 1010.5 181.6 1018.1 160.2 1029.3 176.7 1016.9 202.7C1016.3 204 1017.2 205.5 1018 205.9 1019.3 206.5 1020.6 206.1 1021.2 204.8L1032.4 181.4 1040.1 192 1034.5 203.7C1033.9 205 1034.4 206.3 1035.7 206.9S1038.2 207.1 1038.9 205.8L1043.2 196.7 1052.7 210.2C1052.9 210.9 1053.3 211.1 1053.8 211.3 1054.2 211.5 1055.3 211.5 1056.1 210.8 1057 210.2 1057.6 208.9 1056.5 207.8ZM1009.7 170L1001 153.6 982.8 157.1 992.7 141.1 980.6 127.3 999.1 127.7 1005.2 110.4 1013.9 126.8 1032.1 123.2 1022.5 138.8 1034.3 153 1016 152.3 1009.7 170Z" fill="rgba(51, 121, 194, 0.58)"></path><path d="M503.9 164.4L550.7 184.8 557.2 202.3 541.4 195.4C539.9 194.2 538.2 195.3 537 196.8 536.7 198.2 537.4 200.4 538.8 200.7L560.3 210.6 567.2 227.6 549.1 224.6 535.2 205.1C535.2 205.1 534.7 204.7 534.7 204.7 533.7 203.9 531.9 204.1 530.6 204.7 529.4 206.2 529.1 207.6 530.1 209.3L540.3 223.3 522.2 220.2 491.8 179.4C491.8 179.4 491.7 178.5 491.7 178.5 490.7 177.7 488.9 177.8 487.6 178.4 485.9 179.5 485.7 181.8 487.2 183L513.4 218.9 491.2 215.8 479.5 199.8C479.5 199.8 479.5 199.8 479 199.4 478 198.6 476.6 198.3 475.3 198.9 474.1 200.4 473.4 202.3 474.5 204L482.5 214.5 466.3 212.2C464.4 211.5 463.2 213 462.9 214.4 462.2 216.3 463.3 218 465.6 218.2L481.3 221 470.7 228.1C469.5 229.6 468.8 231.5 470.3 232.7 471.4 234.4 472.8 234.7 474.5 233.6L490.5 221.8 512.3 225.4 476.1 252.1C474.8 252.7 474.6 255 475.7 256.7 476.7 257.5 478.6 258.2 480.3 257.1L521.1 226.7 539.2 229.7 525.3 239.9C523.6 241 523.8 242.8 524.9 244.5 525.5 245.8 527.8 246 529.1 245.4L548 231.1 566.5 233.6 554.8 248.1 531.4 250.6C529.6 250.8 528.4 252.3 528.6 254.1 528.3 255.5 530.3 257.1 532.1 256.9L549.2 255.1 537.6 269.5 486.7 274.6C484.9 274.8 483.7 276.3 483.9 278.1 484.1 279.9 485.6 281.1 487.4 280.9L532 276.5 518.3 293.5 498.6 295.6C496.8 295.8 495.5 297.3 495.7 299.1 495.9 300.9 497.4 302.1 499.2 301.9L512.3 300.9 502.3 313.4C501.1 314.9 501.3 316.7 502.8 317.9 504.3 319.1 506.1 318.9 507.3 317.4L517.3 305 518.7 317.6C518.9 319.4 520.4 320.6 522.2 320.4S525.2 318.7 525 316.9L522.9 298 537 280.5 541.8 324.6C542 326.4 543.5 327.6 545.3 327.4 547.1 327.2 548.3 325.7 548.1 323.9L542.6 273.5 554.2 259.1 556.1 276.2C556.3 278 557.8 279.2 559.6 279 561.4 278.8 562.6 277.3 562.4 275.5L559.8 252.1 571.1 238.1 577.4 254.7 568 276.7C567.7 278.1 568.4 280.3 569.8 280.6 571.7 281.3 573 280.7 574.2 279.2L581.1 263.4 587.4 280 567 326.9C566.3 328.8 566.9 330.1 568.4 331.3 570.3 332 572 330.9 572.8 329.9L591.1 288.7 598.9 309.8 591.2 327.4C590 328.9 591.1 330.6 592.6 331.8 594 332.1 596.2 331.4 596.9 329.5L602 318.1 608.2 332.9C608.4 334.7 610.3 335.4 612.5 334.7 613.8 334.1 614.5 332.2 613.9 330.9L608.1 315.6 620.1 321.1C622 321.8 623.7 320.7 624 319.3 625.2 317.8 624.6 316.5 623.6 315.7 623.1 315.3 623.1 315.3 622.6 314.9L605 307.3 597.2 286.3 637.9 304.2C639.4 305.4 641.1 304.3 642.3 302.8 642.6 301.4 642 300.1 641 299.3 640.5 298.9 640.5 298.9 640.5 298.9L593.5 277.6 587.2 260.9 603 267.9C604.9 268.6 606.2 268 607.4 266.5 607.7 265.1 607.5 263.3 606.5 262.5 606 262.1 606 262.1 605.5 261.7L583.5 252.2 577.2 235.6 594.7 238.3 609.1 257.2C610.2 258.9 612.5 259.1 613.8 258.5 615 257 615.7 255.1 614.2 253.9L604 240 622 242.1 652.5 283.9C653.1 285.2 655.4 285.4 656.7 284.8 657.9 283.3 658.6 281.4 657.5 279.7L631.3 243.9 653.1 247.4 664.4 263C665.4 264.7 667.7 264.9 668.9 263.4 670.2 262.9 671 261 669.9 259.3L661.9 248.7 678.1 251.1C679.5 251.4 681.2 250.3 681.9 248.4 681.8 247.5 681.2 246.2 680.2 245.4 680.2 245.4 679.7 245 679.2 244.6L663 242.2 673.5 234.3C674.8 233.7 675 231.4 674.4 230.1 673.9 229.7 673.9 229.7 673.9 229.7 672.4 228.5 670.6 228.7 669.8 229.7L654.2 240.9 632 237.9 668.3 211.2C669.5 209.7 669.8 208.3 668.7 206.6 668.7 206.6 668.2 206.2 668.2 206.2 667.2 205.4 665.8 205.1 664.1 206.2L622.7 236.1 605.2 233.5 619.1 223.3C620.3 221.8 621 220 619.5 218.7 619.9 218.2 619.4 217.8 619.4 217.8 618.4 217 616.6 217.2 615.3 217.8L596.4 232.2 578.3 229.1 589.5 215.2 612.9 212.6C614.7 212.4 616.3 210.4 616.1 208.6 615.5 207.3 614 206.1 612.6 205.8L595.1 208.2 606.7 193.7 657.1 188.3C658.9 188.1 660.1 186.6 659.9 184.8 659.7 183 658.3 181.8 656.5 182L612.4 186.7 626.4 169.3 645.3 167.2C647.1 167 648.3 165.5 648.1 163.7S646.4 160.7 644.6 160.9L632 162.3 642 149.8C643.2 148.3 643 146.5 641.5 145.3 640.1 144.1 638.3 144.3 637.1 145.8L627 158.3 625.2 145.3C625.1 144.4 625 143.5 624.5 143.1 624 142.7 622.6 142.4 621.7 142.5 619.9 142.7 618.7 144.2 618.9 146L621.4 165.3 607.4 182.7 602.1 138.2C602 137.3 601.9 136.4 601.4 136 600.9 135.6 599.5 135.3 598.6 135.4 596.8 135.6 595.6 137.1 595.8 138.9L601.8 189.7 590.1 204.2 588.7 186.6C588.6 185.7 587.6 184.9 587.1 184.5 586.6 184.1 586.1 183.7 585.2 183.8 583.4 184 581.8 186 582.4 187.3L584.5 211.2 573.3 225.1 566.4 208.1 576.4 186.6C576.7 185.2 576.5 183.4 575.5 182.6 575 182.2 575 182.2 574.6 182.7 573.1 181.5 570.9 182.1 570.2 184L563.3 199.8 556.4 182.8 577.7 135.9C578 134.5 577.4 133.2 576.4 132.4 575.9 132 575.9 132 575.9 132 574 131.3 572.2 131.5 571.5 133.4L553.2 174.5 545.5 153.5 553.1 135.8C553.8 133.9 553.2 132.6 552.2 131.8 552.2 131.8 551.7 131.4 551.7 131.4 549.8 130.7 548.1 131.8 547.3 132.8L542.3 145.2 536.5 129.9C536 129.5 535.5 129.1 535 128.7 534.5 128.3 533.1 128 532.2 128.1 530.5 129.2 529.3 130.7 530.4 132.4L536.2 147.7 524.2 142.2C522.3 141.4 520.6 142.5 519.8 143.5 519.1 145.4 520.2 147.1 521.7 148.3L539.4 156 547.5 176.5 506.9 158.6C505 157.9 502.8 158.6 502.5 160 501.8 161.9 502 163.7 503.9 164.4Z" fill="rgba(51, 121, 194, 0.58)"></path><path d="M1319.6 253.4L1306.6 242.8 1316 238.8C1317 238.5 1317.7 237.1 1317.4 235.6 1316.6 234.5 1315.2 233.8 1314.2 234.7L1302.3 239.2 1291.8 231.3 1316.5 221.9C1317.6 221.1 1318.3 219.7 1318 218.7 1317.2 217.2 1315.9 216.5 1314.8 217.3L1287.5 227.8 1271.9 215.3 1294.1 209.4 1274.6 197.2 1293.2 189.8 1316.2 207.8C1316.1 208.3 1316.6 208.3 1317.1 208.4 1318 208.5 1319.1 208.2 1319.7 207.3 1320.3 206.4 1320 205 1319.2 203.9L1298.3 187.7 1310.6 183.2 1320.6 191C1321 191.5 1321.5 191.6 1322 191.7 1322.5 191.7 1323.5 191.4 1324.1 190.5 1324.7 189.6 1324.5 188.1 1323.6 187.5L1315.8 181 1331.3 174.6C1332.8 174.3 1333 172.9 1332.8 171.4 1332.4 170.4 1331.1 169.7 1329.5 170.4L1314.1 176.4 1315.5 166.4C1315.8 165 1314.5 163.9 1313.5 163.7 1312.1 163.5 1311 164.3 1310.8 165.7L1308.9 178.6 1296.6 183 1300.4 157.4C1300.6 156 1299.8 154.9 1298.4 154.7 1297.4 154.5 1295.8 155.3 1295.6 156.7L1291.4 185.2 1272.8 192.6 1278.5 170.6 1258.5 181.3 1261.5 161.3 1288.3 150.7C1289.8 150 1290 148.6 1289.7 147.6 1289.4 146.5 1288 145.9 1286.5 146.1L1262.2 156.1 1264.1 143.3 1276.1 138.3C1277.5 138 1278.2 136.6 1277.5 135.1 1277.2 134.1 1275.8 133.4 1274.2 134.1L1265 137.6 1267.5 121C1267.7 119.5 1266.9 118.5 1265.4 118.2S1262.9 118.8 1262.7 120.3L1260.2 136.9 1252.4 130.9C1251.1 129.7 1249.6 130 1249 130.8 1247.8 132.1 1248.1 133.6 1249.5 134.3L1259.4 142.6 1257.5 155.4 1237.2 138.8C1235.8 138.1 1234.3 138.4 1233.7 139.2 1232.5 140.5 1232.8 142 1234.1 142.7L1256.7 160.6 1253.8 180.6 1237.7 164.6 1236.8 187.3 1221.1 174.8 1225.4 146.3C1225.6 144.8 1224.3 143.7 1223.3 143.5 1221.9 143.3 1220.8 144.1 1220.6 145.6L1216.7 171.7 1206.3 163.3 1208.2 150.5C1208.4 149.1 1207.6 148 1206.2 147.8 1205.3 147.6 1203.7 148.4 1203.5 149.8L1202 159.8 1189 149.6C1187.7 148.4 1186.2 148.7 1185.5 150.1 1184.9 150.9 1184.7 152.4 1186 153L1199 163.7 1189.7 167.7C1188.7 168 1188 169.3 1188.3 170.4 1188.6 171.4 1189.5 172 1190 172.1 1190.5 172.1 1190.9 172.2 1191.5 171.8L1203.3 167.3 1213.8 175.1 1189.1 184.6C1188 185.4 1187.3 186.7 1187.7 187.7 1188 188.8 1188.9 189.4 1189.8 189.5 1190.3 189.6 1190.3 189.6 1190.9 189.2L1218.1 178.7 1233.7 191.2 1211.5 197.1 1231.1 209.2 1212.5 216.7 1189.4 198.7C1188.6 198.1 1187.1 197.9 1186 199.1 1185.4 200 1185.6 201.5 1186.4 202.6L1207.3 218.8 1195 223.3 1185 215.5C1184.2 214.4 1182.7 214.7 1181.5 215.9 1180.9 216.8 1181.2 218.3 1182 219.4L1189.8 225.4 1174.3 231.9C1172.8 232.1 1172.6 233.5 1172.9 235 1173.3 235.6 1174.2 236.2 1174.6 236.3 1175.1 236.3 1175.6 236.4 1176.1 236L1191.6 230.1 1190.1 240C1189.9 241.4 1191.2 242.6 1192.1 242.7L1192.1 242.7C1193.6 243 1194.6 242.2 1194.9 240.7L1196.8 227.9 1209.1 223.4 1205.3 249.1C1205 250.5 1205.9 251.6 1207.3 251.8S1209.8 251.2 1210 249.8L1214.2 221.3 1232.8 213.8 1227.1 235.8 1247.1 225.2 1244.2 245.1 1217.4 255.7C1215.8 256.5 1215.6 257.9 1215.9 258.9 1216.3 259.9 1217.6 260.6 1219.1 260.3L1243.3 250.8 1241.5 263.2 1229.6 268.2C1228.1 268.5 1227.4 269.8 1228.2 271.4 1228.5 272.4 1229.8 273.1 1231.3 272.8L1240.7 268.9 1238.2 285.5C1238 286.9 1238.8 288 1240.2 288.2S1242.7 287.6 1242.9 286.2L1245.4 269.6 1253.2 275.6C1253.7 276.1 1254.1 276.2 1254.6 276.3 1255.6 276.4 1256.1 276 1256.6 275.6 1257.8 274.3 1257.5 272.8 1256.2 272.1L1246.3 263.9 1248.2 251.1 1268.5 267.7C1269 267.7 1269.4 267.8 1269.9 267.9 1270.9 268 1271.4 267.6 1272 267.2 1273.1 265.9 1272.9 264.4 1271.5 263.7L1248.9 245.8 1251.9 225.9 1268 241.9 1268.9 219.2 1284.5 231.7 1280.3 260.2C1280.1 261.6 1281.4 262.8 1282.3 262.9 1283.7 263.1 1284.8 262.3 1285 260.9L1288.8 235.3 1299.3 243.1 1297.4 255.9C1297.2 257.4 1298 258.5 1299.4 258.7S1301.9 258.1 1302.2 256.6L1303.6 246.7 1316.7 256.9C1317.1 257.4 1317.6 257.5 1318 257.5 1318.5 257.6 1319.5 257.3 1320.1 256.4 1320.8 255.5 1321 254.1 1319.6 253.4ZM1263.7 231.1L1250.6 217.9 1234.3 226.7 1238.9 208.4 1223.4 198.9 1241.1 193.7 1241.9 175.4 1255 188.5 1271.3 179.8 1266.8 197.5 1282.3 207.6 1264.6 212.3 1263.7 231.1Z" fill="rgba(51, 121, 194, 0.58)"></path><path d="M571.1 625.4L568.2 608.1 579.4 611.8C580.5 612.3 582.2 611.6 583.1 610.1 583.2 608.6 582.6 606.9 581.4 606.4L566.7 601.2 564.1 585.1 593.8 595.9C595.8 596.5 597.4 595.8 597.5 594.3 598.5 592.7 597.8 591.1 595.9 590.5L563.1 578.6 560.3 564.1 586.4 542.1 598.8 546.3 604.8 582.9C605.2 583.4 605.6 583.8 605.9 584.2 606.3 584.7 607.4 585.2 608.2 585.2 610.2 585 611.1 583.5 610.5 581.8L605 548.4 620 554 623.3 571C622.9 571.4 623.3 571.8 623.6 572.2 624.3 573.1 625.5 573.6 626.7 573.3 627.9 573 628.8 571.5 629 569.9L626.2 556.1 645.1 562.9C646.2 563.4 647.9 562.7 648.8 561.2 648.9 559.6 648.3 558 647.1 557.5L629.4 551.2 638.3 543.6C639.6 542.6 639.4 540.5 638.7 539.7 637.6 538.4 635.6 537.8 634.4 538.9L622.8 548.7 607.8 543.1 631.7 522.8C633 521.7 633.2 520.2 632.1 518.9 631 517.6 629.4 517.5 628.1 518.5L601.6 541 588.5 536.7 582.6 502.8 592.4 494.5 626 506.4C627.5 507.4 629.5 506.3 629.7 504.8 630.6 503.3 629.5 502 628 501L597.5 490.1 609.9 479.7 625 485.3C626.1 485.8 628.2 484.8 628.7 483.6S628.2 480.4 626.6 479.5L615.1 475.3 630 462.7C631.3 461.6 631.1 459.6 630 458.3 629.3 457.4 627.3 456.9 626.1 458L611.1 470.6 608.6 458.1C608.3 456.9 607.2 455.6 605.2 455.8 604 456.1 602.6 458 602.9 459.2L606 475 593.6 485.4 587.9 453.6C587.2 451.9 586.1 450.6 584.1 450.9 582.9 451.2 581.6 453 581.9 454.3L588.4 489.8 578.6 498.1 546.2 486.6 544.1 472.9 570.7 450.5C571.9 449.4 572.1 447.9 571 446.6 569.9 445.3 568 444.7 566.7 445.8L542.7 466.1 539.7 450.3 551.2 440.6C552.5 439.5 552.6 437.9 551.6 436.6 550.5 435.3 548.9 435.2 547.6 436.3L538.6 443.9 535.4 425.3C535.1 424.1 533.3 422.8 532 423.1 530.4 423.7 529.1 424.8 529.8 426.4L532.9 445.8 520.2 441.1C518.6 441 517 441.7 516.5 442.8 516 444 516.3 445.2 517 446 517 446 517.4 446.5 518.1 446.5L534.3 452.6 537.4 468.4 505.3 457.4C503.8 456.4 502.2 457.1 501.6 459 501.5 459.8 501.5 460.6 502.2 461.5 502.5 461.9 502.9 462.3 503.3 462.8L538.4 474.8 540.5 487.7 514.4 509.8 500.5 504.6 494.3 470.3C494.1 468.3 492.5 467.4 490.9 468.1 489.3 467.9 488.4 469.5 488.6 471.5L494.4 502.5 478.9 497.3 476.2 481.9C475.9 480.7 474.4 479.8 472.8 479.7 471.2 480.3 469.9 481.4 470.6 483.1L472.4 494.7 455.8 489C454.3 488 453 489.1 452 490.6 452 491.4 452.3 492.6 453 493.5 453 493.5 453.4 493.9 453.7 494.4L471.5 500.6 460.8 509.7C459.9 510.4 459.4 512.3 460.5 513.6 461.5 514.9 463.5 514.7 464.4 513.9L477.7 502.7 493.1 508 467 530C465.7 531.1 466 533.1 467 534.4S469.7 535.8 471 534.8L499.7 510.5 512.4 515.2 518.3 549.1 507.2 558.5 473.2 546.1C471.6 545.9 470 546.6 469.1 548.1 469 548.9 469.3 550.1 470 551 470.4 551.4 470.8 551.8 471.5 551.9L502 562.8 489.6 573.3 474.2 568C473 567.5 471.4 568.2 470.4 569.7 470.3 571.3 471 572.9 472.1 573.4L484.5 577.6 470.8 589.2C469.9 589.9 469.7 592.3 470.5 593.1 471.5 594.4 473.9 594.6 474.8 593.9L488.5 582.3 490.2 594.8C490.6 595.2 490.9 595.6 491.3 596.1 492 596.9 493.2 597.4 493.9 597.5 495.6 596.8 496.5 595.3 496.6 593.7L493.6 578 506 567.5 511.7 599.4C511.9 601.4 513.4 602.3 514.6 602 516.6 601.8 517.6 600.3 517.7 598.7L511.1 563.2 522.2 553.8 554.7 565.2 557.1 578.5 528.5 602.8C527.2 603.8 527.1 605.4 528.1 606.7 529.2 608 530.8 608.1 532.1 607L558.2 585 560.8 601.1 547.5 612.3C546.7 613 546.5 615.4 547.6 616.7 548.6 618 550.7 617.7 551.5 617L562.2 608 565.4 626.5C565.8 627 565.8 627 566.1 627.4 566.9 628.2 568 628.7 568.8 628.8 570.4 628.1 571.4 626.6 571.1 625.4ZM527.4 549.4L523.9 547.9 523.4 544.7 518.6 517.3 518 514.1 520.6 511.9 541.6 494.2 544.1 492 547.2 493.1 573.4 502.4 576.5 503.5 577.4 507.1 581.9 534.1 582.8 537.8 580.2 540 559.3 557.7 556.7 559.8 553.3 558.4 527.4 549.4Z" fill="rgba(51, 121, 194, 0.58)"></path><path d="M854.9 458.9L856.4 439.4 866.4 445.7C867.4 446.4 869.2 446.2 870.4 444.9 870.9 443.4 870.7 441.7 869.2 441.2L857 432.9 857.5 417.6 883 434.9C884.5 435.5 886.3 435.2 887 434.2 888 432.5 887.8 430.7 886.3 430.2L858 411.1 859.6 387.8 880.1 405.1 878.7 378.3 898.2 391.2 896.3 425.2C895.8 425.5 896 426 896.3 426.5 896.8 427.5 897.8 428.2 899 428.2 900.3 428.2 901.6 427 902.1 425.5L903.7 394.7 916.2 403.5 915.4 418.3C915.1 419 915.4 419.5 915.6 420 915.9 420.5 916.8 421.3 918.1 421.3 919.4 421.3 920.6 420 920.6 418.8L921.7 407 938.1 417.6C939.4 418.9 940.9 418.1 942.2 416.9 942.9 415.9 942.7 414.1 940.9 413.1L924.9 402.3 935.5 397.1C937 396.3 937.2 394.3 936.7 393.3 936 391.8 934.5 391.3 933 392L919.4 398.8 906.9 389.9 934 376.5C935.5 375.8 936 374.3 935.3 372.8 934.8 371.8 933 370.7 931.5 371.5L901.4 386.4 881.9 373.6 906.8 364.4 883.3 352.3 904.3 341.9 932.3 360.5C934.1 361.5 935.6 360.7 936.3 359.7 937.1 358.7 936.8 357 935.6 355.7L909.9 339.1 923.4 332.4 936.1 340.5C937.4 341.7 939.1 341.5 940.2 339.7 940.9 338.7 940.7 337 938.9 336L929.4 329.4 947 320.7C948.5 320 949 318.5 948.2 317S946 314.9 944.5 315.7L926.9 324.4 927.5 312.9C927.7 310.9 926.5 309.6 925.2 309.6 923.2 309.4 922 310.6 922.2 312.4L920.9 327.4 907.4 334.1 909.7 303.6C909.5 301.8 908.2 300.5 907 300.5 905 300.3 903.7 301.5 904 303.3L901.8 336.8 880.8 347.3 885.4 321.3 863 335.5 864.6 312.2 894.7 297.2C896.2 296.5 896.5 294.5 896 293.5 895.2 292 893.7 291.5 892.2 292.2L864.6 305.9 865.7 290.4 879.2 283.7C880.7 282.9 881.2 281.4 880.5 279.9 880 278.9 878.2 277.9 876.7 278.7L866.2 283.9 867.3 264.6C867.5 262.6 866.3 261.3 864.5 261.6 863.3 261.6 861.8 262.3 862 264.1L860.4 283.6 850.4 277.3C849.4 276.6 847.7 276.8 846.9 277.8 846.2 278.8 846.2 280.1 846.4 280.6 846.7 281.1 846.9 281.6 847.7 281.8L859.9 290.1 859.4 305.4 833.9 288C832.4 287.5 830.6 287.8 829.9 288.8 829.1 289.8 829.1 291 829.6 292 829.9 292.5 829.9 292.5 830.6 292.8L858.9 311.9 857.3 335.2 836.8 317.8 838.2 344.6 818.7 331.8 820.6 297.8C820.6 296.5 819.8 295 817.8 294.7 816.6 294.7 815.3 296 814.8 297.5L813.2 328.3 800.7 319.5 801.5 304.7C802 303.2 800.8 302 798.8 301.7 797.5 301.7 796.3 302.9 795.8 304.4L795.2 316 778.7 305.4C777.5 304.1 776 304.9 774.7 306.1 774.5 306.9 774.5 308.1 774.7 308.6 775 309.1 775.2 309.6 776 309.9L792 320.7 781.4 325.9C779.9 326.7 779.7 328.7 780.2 329.7L780.2 329.7C780.9 331.2 782.4 331.7 783.9 330.9L797.5 324.2 809.9 333 782.9 346.5C781.4 347.2 780.8 348.7 781.6 350.2S783.8 352.2 785.3 351.5L815.4 336.6 834.9 349.4 810.1 358.6 833.6 370.7 812.5 381.1 784.6 362.5C782.8 361.5 781.3 362.2 780.5 363.2 779.8 364.2 780 366 781.3 367.3L806.5 384.1 793.5 390.6 780.7 382.5C779.5 381.3 777.7 381.5 776.7 383.3 776 384.3 776.2 386 777.5 387.3L787.5 393.6 769.9 402.3C768.4 403 767.9 404.5 768.6 406S770.9 408 772.4 407.3L789.9 398.6 789.4 410.1C789.2 410.9 789.4 411.4 789.7 411.9 790.2 412.9 790.9 413.1 791.7 413.4 793.7 413.6 794.9 412.4 794.7 410.6L796 395.6 809.5 388.9 807.2 419.4C807.4 419.9 807.7 420.4 807.9 420.9 808.4 421.9 809.2 422.2 809.9 422.4 811.9 422.7 813.2 421.5 812.9 419.7L815 386.1 836.1 375.7 831.5 401.7 853.8 387.5 852.3 410.8 822.2 425.7C820.7 426.5 820.4 428.5 820.9 429.5 821.7 431 823.2 431.5 824.7 430.8L851.7 417.3 851.2 432.6 837.7 439.3C836.1 440.1 835.6 441.6 836.4 443.1S838.6 445.1 840.1 444.3L850.7 439.1 849.6 458.4C849.4 459.1 849.6 459.6 849.9 460.1 850.1 460.6 851.1 461.4 852.4 461.4 853.6 461.4 855.1 460.7 854.9 458.9ZM839.1 390.5L842.9 369.2 823.6 359.4 844.2 351.7 843 330.4 859.7 344 877.8 332.5 874 353.8 893.2 363.6 873.2 371.1 873.9 392.6 857.6 378.8 839.1 390.5Z" fill="rgba(51, 121, 194, 0.58)"></path><path d="M1325 603.4L1297.7 565.9 1304.4 525 1336.4 551.2 1340.7 597.5C1340.7 597.5 1340.9 598 1340.9 598 1341.3 599.1 1342.8 599.7 1344 599.9 1345.8 599.8 1347 598.1 1346.4 596.6L1342.5 556.1 1358 568.8 1360 586.6C1360 586.6 1360.2 587.2 1360.2 587.2 1360.6 588.2 1362 588.9 1363.3 589 1365 588.9 1366.2 587.3 1365.6 585.7L1364.6 573.5 1376 583C1376.9 583.9 1379.2 583.6 1380 582.7 1381.4 581.5 1380.6 579.5 1379.7 578.6L1368.3 569.1 1380.5 568.1C1382.3 568 1383.5 566.4 1382.9 564.8 1382.8 563.1 1381.1 561.9 1379.6 562.5L1361.8 564.4 1346.7 551.5 1387.1 547.6C1388.9 547.6 1390.1 545.9 1389.5 544.4 1389.4 542.6 1387.8 541.4 1386.2 542L1339.9 546.3 1307.9 520.1 1347.2 505.3 1389.8 524.5C1391.2 525.2 1392.8 524.6 1393.4 523.1 1394.1 521.7 1393.5 520.1 1392.1 519.5L1354.5 502.5 1373.4 495.4 1389.3 502.6C1390.7 503.2 1392.3 502.6 1392.9 501.2 1393.6 499.7 1393 498.2 1391.5 497.5L1380.7 492.6 1395.4 487.1C1397.2 487 1397.6 485 1397 483.5 1396.4 481.9 1395 481.2 1393.4 481.8L1379.8 487 1384.7 476.1C1385.3 474.7 1384.7 473.1 1383.3 472.5S1380.3 472.4 1379.6 473.9L1372.5 489.7 1353.6 496.9 1370.6 459.3C1371.2 457.9 1370.6 456.3 1369.2 455.7 1367.7 455 1366.2 455.6 1365.5 457.1L1346.3 499.6 1307.5 514.3 1314.2 473.4 1350.9 447C1352.3 445.9 1352.2 444.1 1351.6 442.5 1350.5 441.2 1348.7 441.2 1347.2 441.8L1314.3 465.6 1317.6 445.8 1332.2 435.5C1333.6 434.4 1333.5 432.6 1332.9 431 1331.8 429.7 1330 429.7 1329 430.1L1319.2 437.4 1321.4 422.8C1321.6 421.6 1320.8 419.5 1319 419.5 1317.2 419.6 1315.7 420.2 1315.7 422L1313.5 436.6 1306.2 426.8C1305.1 425.4 1303.3 425.5 1302.2 425.9 1301.4 426.8 1300.7 428.2 1301.1 429.3 1301.1 429.3 1301.3 429.8 1301.3 429.8L1311.7 444.5 1308.4 464.3 1284.6 431.4C1283.4 430 1281.7 430 1280.6 430.4 1279.8 431.4 1279.1 432.8 1279.5 433.9 1279.5 433.9 1279.7 434.4 1279.7 434.4L1307.1 471.9 1300.3 512.8 1268.3 486.6 1264 440.3C1263.9 438.5 1262.3 437.4 1260.7 438 1258.9 438 1257.8 439.7 1258.4 441.2L1262.3 481.7 1246.7 469 1244.8 451.2C1244.7 449.4 1243 448.2 1241.5 448.8 1239.7 448.9 1238.5 450.5 1239.1 452.1L1240.1 464.3 1228.8 454.8C1227.9 454 1225.6 454.2 1224.7 455.2 1223.9 456.1 1223.7 457.3 1224.1 458.4 1224.3 458.9 1224.5 459.4 1225.2 459.7L1236.6 469.2 1224.4 470.2C1222.6 470.3 1221.5 471.9 1222.1 473.5 1222.1 473.5 1222.3 474 1222.3 474 1222.7 475.1 1224.1 475.7 1225.3 475.9L1243.2 473.9 1258.7 486.6 1218.3 490.5C1216.5 490.6 1215.4 492.2 1215.9 493.8 1215.9 493.8 1216.1 494.3 1216.1 494.3 1216.5 495.4 1218 496 1219.2 496.1L1265.5 491.8 1297.5 518 1258.8 532.7 1216.2 513.4C1214.7 512.8 1213.2 513.4 1212.5 514.8 1211.9 516.3 1212.5 517.8 1213.9 518.5L1250.9 535.6 1232.1 542.8 1216.2 535.6C1214.7 534.9 1213.2 535.5 1212.5 537S1212.5 540 1213.9 540.6L1224.7 545.5 1211.1 550.7C1209.5 551.3 1208.9 552.7 1209.5 554.3 1210.1 555.9 1211.5 556.5 1213.1 555.9L1226.7 550.8 1221.8 561.6C1221.5 562.3 1221.2 563 1221.6 564.1S1222.7 565.5 1223.4 565.8C1224.8 566.4 1226.4 565.9 1227.1 564.4L1234.2 548.5 1253.1 541.4 1236.1 578.9C1235.8 579.7 1235.5 580.4 1235.9 581.4 1236.1 582 1237 582.8 1237.7 583.1 1239.2 583.8 1240.7 583.2 1241.4 581.7L1260.6 539.2 1299.4 524.5 1292.7 565.4 1255.1 592.7C1254.3 593.6 1253.6 595.1 1254 596.1 1254 596.1 1254.2 596.7 1254.2 596.7 1255.3 598 1257.1 598 1258.1 597.6L1291.1 573.8 1287.8 593.6 1273.1 603.9C1272.2 604.8 1271.6 606.3 1272 607.3 1272 607.3 1272.2 607.8 1272.2 607.8 1273.3 609.2 1275.1 609.1 1276.1 608.7L1285.9 601.4 1283.7 616.1C1283.9 616.6 1283.6 617.3 1283.7 617.8 1284.1 618.9 1285.1 619.7 1286.3 619.9 1288.1 619.8 1289.7 619.2 1289.6 617.4L1291.8 602.8 1299.1 612.6C1300.3 614 1302 613.9 1303.1 613.5 1304.4 612.4 1304.4 610.6 1304 609.6L1293.7 594.9 1297 575.1 1320.8 608C1321.9 609.4 1323.6 609.3 1324.7 608.9 1325.7 606.8 1326.1 604.8 1325 603.4Z" fill="rgba(51, 121, 194, 0.58)"></path><path d="M121.2 53.1L138.5 79.9 135.7 91.3 130 82.2C129.6 81.1 128.3 81 127.2 81.4 126.5 82 126.1 83.4 126.8 84L134.5 96.7 132.2 107.9 123.8 100.1 123.3 85.1C123.3 85.1 123.2 84.7 123.2 84.7 123 84 122 83.5 121.1 83.3 119.9 83.7 119.3 84.3 119.3 85.6L119.7 96.3 111.4 88.5 109.8 56.7C109.8 56.7 110 56.2 110 56.2 109.8 55.4 108.8 54.9 107.9 54.8 106.6 54.7 105.7 55.9 106.1 57L107.3 84.7 96.8 75.5 96.2 63C96.2 63 96.2 63 96.1 62.7 95.9 61.9 95.3 61.3 94.4 61.1 93.2 61.5 92.2 62.2 92.2 63.5L92.7 71.7 85.1 64.9C84.3 63.9 83.2 64.2 82.5 64.8 81.5 65.6 81.5 66.9 82.6 67.8L89.8 74.7 81.9 74.7C80.7 75.1 79.7 75.8 80.1 76.9 80 78.2 80.7 78.9 81.9 78.9L94.3 78.3 104.4 87.7 76.3 89C75.4 88.9 74.5 90 74.5 91.3 74.8 92 75.5 93.1 76.8 93.1L108.5 91.5 116.9 99.3 106.1 99.8C104.9 99.7 104.3 100.8 104.3 102 104.2 102.9 105.3 103.8 106.2 103.9L121 103.1 129.7 110.8 118.7 114.3 105.6 107.5C104.6 107 103.5 107.3 103 108.3 102.3 108.9 102.8 110.5 103.8 111L113.3 116 102.3 119.4 74 104.4C73 103.9 71.9 104.3 71.4 105.3 70.9 106.3 71.2 107.4 72.2 107.9L96.9 121.1 84 125.2 72.9 119.5C71.9 118.9 70.8 119.3 70.2 120.3 69.7 121.3 70.1 122.5 71.1 123L78.2 127 68.7 130C67.5 130.4 67 131.4 67.4 132.5 67.7 133.7 68.8 134.2 69.9 133.8L79.4 130.8 75.8 137.9C75.3 138.9 75.6 140 76.6 140.5S78.8 140.7 79.3 139.7L84.8 129.1 98.1 124.9 85.3 149.5C84.8 150.5 85.2 151.7 86.2 152.2 87.2 152.7 88.3 152.4 88.8 151.4L103.5 123.3 114.5 119.8 109.6 129.3C109 130.3 109.4 131.5 110.4 132 111.4 132.5 112.6 132.1 113.1 131.1L119.9 118.1 130.6 114.7 128.1 125.6 115.6 133.7C114.9 134.3 114.5 135.7 115.1 136.4 115.9 137.4 116.8 137.5 117.9 137.2L127 131.4 124.5 142.2 97.7 159.5C96.7 160.2 96.5 161.1 96.9 162.2 97.6 163.3 98.9 163.3 99.6 163L123.4 148 120.2 161.6 110.1 168.1C108.9 168.5 108.9 169.8 109.3 170.9 109.9 171.6 111.3 172 112.3 171.2L118.9 167 117 176.9C116.5 177.9 117.2 178.9 118.6 179.3 119.5 179.4 120.5 178.7 120.7 177.8L123 167.9 127.3 174.9C128 175.9 129.3 175.9 129.9 175.3 131.1 174.9 131.2 174.1 131 173.3 130.9 172.9 130.9 172.9 130.7 172.5L124.2 162.4 127.5 148.8 142.4 172.2C142.7 173.4 144 173.4 145.2 173 145.8 172.4 145.9 171.5 145.7 170.8 145.6 170.4 145.6 170.4 145.6 170.4L128.6 143 131 132.2 136.8 141.3C137.6 142.3 138.4 142.4 139.6 142.1 140.2 141.4 140.8 140.4 140.5 139.7 140.4 139.3 140.4 139.3 140.3 138.9L132.1 126.4 134.6 115.5 142.8 123 143.7 137.8C143.7 139.1 144.8 140 145.7 140.1 146.8 139.8 147.9 139 147.5 137.9L147 127.1 155.7 134.5 157 166.8C156.9 167.7 158 168.6 158.9 168.7 160 168.3 161.1 167.6 161.1 166.3L159.9 138.6 170 148 170.4 160C170.4 161.3 171.5 162.2 172.7 161.8 173.5 162 174.6 161.2 174.6 160L174.1 151.7 181.7 158.6C182.3 159.2 183.6 159.2 184.6 158.5 184.9 158 185 157.1 184.8 156.4 184.8 156.4 184.7 156 184.5 155.6L176.9 148.8 185.2 148.3C186 148.4 186.9 147.3 187.1 146.4 187 146 187 146 187 146 186.6 144.9 185.6 144.3 184.8 144.6L172.8 145 162.3 135.7 190.4 134.4C191.6 134.1 192.2 133.5 192.3 132.2 192.3 132.2 192.1 131.8 192.1 131.8 191.9 131 191.3 130.4 190 130.4L158.1 131.6 149.9 124.1 160.6 123.7C161.8 123.3 162.8 122.6 162.5 121.4 162.8 121.3 162.7 120.9 162.7 120.9 162.5 120.2 161.5 119.7 160.6 119.5L145.8 120.4 137.4 112.6 148.1 109.2 161.1 116C162.2 116.5 163.7 116 164.2 115 164.3 114.1 164 113 163.4 112.4L153.4 107.5 164.5 104 192.6 118.7C193.6 119.2 194.8 118.8 195.3 117.8 195.8 116.8 195.4 115.7 194.4 115.1L169.9 102.3 183.2 98.1 193.7 103.6C194.7 104.1 195.9 103.8 196.4 102.8S196.6 100.6 195.6 100.1L188.5 96.4 198.1 93.4C199.2 93.1 199.7 92.1 199.4 90.9 199 89.8 198 89.3 196.9 89.6L187.3 92.6 190.9 85.2C191.1 84.7 191.4 84.2 191.3 83.8 191.2 83.5 190.5 82.8 190 82.6 189 82 187.9 82.4 187.4 83.4L182 94.3 168.6 98.5 181.3 73.6C181.6 73.1 181.9 72.6 181.7 72.2 181.6 71.8 181 71.1 180.5 70.9 179.5 70.4 178.3 70.7 177.8 71.7L163.3 100.2 152.2 103.7 157.6 94C157.9 93.5 157.6 92.8 157.5 92.4 157.4 92 157.2 91.6 156.7 91.4 155.7 90.8 154.2 91.3 154.1 92.2L146.9 105.4 136.2 108.7 138.6 97.5 151.2 89.8C151.9 89.1 152.4 88.1 152.1 87.4 152 87 152 87 151.6 87.1 151.3 86 149.9 85.6 148.9 86.3L139.8 92.1 142.1 80.9 169.5 63.9C170.1 63.3 170.3 62.4 170 61.6 169.9 61.2 169.9 61.2 169.9 61.2 169.2 60.2 168.2 59.7 167.1 60.4L143.3 75.5 146.6 61.9 156.7 55.3C157.7 54.6 157.9 53.7 157.6 52.9 157.6 52.9 157.5 52.5 157.5 52.5 156.8 51.5 155.5 51.5 154.7 51.7L147.8 56.4 150.2 46.5C150 46.1 149.9 45.7 149.8 45.3 149.7 45 149 44.3 148.5 44 147.3 44 146.1 44.4 146.1 45.7L143.8 55.6 139.5 48.6C138.7 47.6 137.5 47.5 136.7 47.8 135.7 48.5 135.7 49.8 136 50.9L142.6 61 139.7 74.5 124.8 51.1C124 50.1 122.6 49.7 122 50.3 121 51.1 120.5 52.1 121.2 53.1Z" fill="rgba(51, 121, 194, 0.58)"></path><path d="M349.9 382.1L329.1 390.4 330.5 377C330.7 375.6 329.6 373.9 327.7 373.3 325.9 373.5 324.2 374.7 324.4 376.5L322.2 393.2 306.3 400.5 311 365.6C310.8 363.8 309.6 362.1 308.2 361.9 305.9 361.7 304.3 362.9 304.5 364.7L299.4 403.3 274.8 413.6 282.1 383.8 255.4 399 258.5 372.5 294.3 356.9C294.8 357.3 295.2 356.8 295.6 356.3 296.3 355.3 296.6 353.9 296 352.6 295.3 351.3 293.4 350.7 291.6 350.9L259.3 365.1 261.9 347.8 277.4 341C278.3 340.9 278.7 340.4 279.1 339.9 279.5 339.4 279.7 338 279.1 336.7 278.5 335.4 276.6 334.8 275.3 335.4L262.7 340.4 265.1 318.1C265.7 316.2 264.2 315 262.3 314.4 260.9 314.1 259.2 315.3 259.1 317.6L256.2 339.4 245.5 331.3C243.9 330.2 241.7 331 241 332 239.8 333.5 240.1 335.3 241.6 336.5L255.4 346.9 252.8 364.1 225.2 343.3C223.7 342.2 221.9 342.4 220.7 344 220 345 219.8 347.3 221.4 348.4L252 371.6 248.9 398 226.8 377.4 226.4 407.6 205 391.4 209.7 353.3C209.8 351 208.3 349.8 206.9 349.6 205.5 349.3 203.8 350.4 203.2 352.4L199.4 387.2 185.6 376.8 187.3 359.6C187.9 357.7 186.8 356 184.5 355.9 183.1 355.6 181.4 356.8 181.3 359.1L179.4 372.1 161.5 358.6C160 357.5 158.2 357.7 157.1 359.3S156.2 362.6 157.7 363.8L175.6 377.2 163.5 382.6C161.4 383.4 160.7 385.3 161.3 386.6 162.1 388.7 164 389.4 165.7 388.2L181.7 381.9 195.5 392.3 163.1 405.5C161.4 406.6 160.8 408.6 161.4 409.8 162.2 412 164.1 412.7 165.8 411.5L201.1 396.5 222.6 412.7 193.6 421.3 219.6 436.9 195 447.2 164.3 424.1C162.8 422.9 160.6 423.7 159.8 424.7 158.7 426.2 158.9 428 160.5 429.2L188.6 450.4 172.2 457.2 158.4 446.8C156.8 445.7 155 445.9 153.9 447.5 153.1 448.5 153 450.8 154.5 451.9L165.2 460 145 468.8C142.8 469.6 142.2 471.5 143.3 473.2 144 474.4 145.5 475.6 147.2 474.5L167.9 466.1 166.6 479.5C166.3 480.9 167.5 482.6 168.9 482.8 170.3 483.1 171.6 482.5 172 481.9 172.4 481.4 172.7 480.9 172.6 480L174.8 463.3 190.7 456 186 490.9C186.3 492.7 187.4 494.4 188.8 494.7 190.2 494.9 191.5 494.3 192.3 493.3 192.7 492.7 192.7 492.7 192.6 491.9L197.7 453.2 222.3 442.9 215 472.7 241.7 457.5 238.5 484 202.8 499.6C201.5 500.2 200.3 501.7 201.1 503.9 201.7 505.2 203.7 505.8 205.5 505.6L237.7 491.5 235.1 508.7 219.6 515.5C217.8 515.7 217.2 517.6 218 519.8 218.6 521.1 220.5 521.7 222.3 521.5L234.4 516.2 232 538.4C231.3 540.3 232.9 541.5 234.8 542.1 235.7 542 237 541.4 237.4 540.9 237.7 540.4 238.1 539.8 238 538.9L240.9 517.1 251.6 525.2C253.1 526.3 255.3 525.6 256.1 524.5L256.1 524.5C257.2 523 257 521.2 255.5 520L241.7 509.6 244.3 492.4 271.9 513.2C273.4 514.3 275.2 514.1 276.3 512.6S277.2 509.2 275.7 508.1L245.1 484.9 248.2 458.5 270.3 479.1 270.6 448.9 292.1 465.1 287.4 503.2C287.2 505.5 288.8 506.7 290.2 507 291.6 507.2 293.3 506.1 293.9 504.1L298.2 469.7 311.5 479.7 309.8 496.9C309.1 498.8 310.3 500.5 312.6 500.6 314 500.9 315.7 499.7 316.3 497.8L317.6 484.4 335.5 497.9C337.1 499 338.8 498.8 340 497.2S340.9 493.9 339.4 492.7L321.5 479.3 333.5 473.9C334.4 473.8 334.8 473.3 335.2 472.8 336 471.7 335.8 470.9 335.7 470 335 467.8 333 467.1 331.4 468.3L315.4 474.6 301.6 464.2 334 451C334.4 450.5 334.7 450 335.1 449.5 335.9 448.5 335.8 447.6 335.7 446.7 334.9 444.5 333 443.8 331.3 445L295.9 460 274.5 443.8 303.4 435.2 277.5 419.6 302.1 409.3 332.7 432.4C334.3 433.6 336.5 432.8 337.2 431.8 338.4 430.3 338.1 428.5 336.6 427.3L309 406.5 324.9 399.3 338.7 409.7C340.2 410.8 342 410.6 343.2 409S344.1 405.7 342.5 404.6L331.8 396.5 352.1 387.7C353 387.6 353.3 387.1 353.7 386.5 354.1 386 354.4 384.6 353.7 383.3 353.1 382.1 351.6 380.9 349.9 382.1ZM288.1 433.2L264.4 440.2 264.2 464.9 245.8 447.8 224.6 459.9 230 435.9 209 423.3 232.7 416.3 232.9 391.6 250.8 408.3 272.4 396.6 266.6 420.2 288.1 433.2Z" fill="rgba(51, 121, 194, 0.58)"></path><path d="M1036.1 279.6L1038.3 289.4 1031.8 287.6C1031.2 287.4 1030.2 287.8 1029.8 288.7 1029.7 289.6 1030.2 290.5 1030.8 290.8L1039.4 293.3 1041.4 302.4 1024.1 297.2C1023 296.9 1022.1 297.4 1022.1 298.3 1021.6 299.2 1022 300.1 1023.1 300.3L1042.2 306 1044.3 314.2 1030.2 327.7 1023 325.7 1018.3 305C1018 304.7 1017.8 304.5 1017.6 304.3 1017.4 304 1016.7 303.8 1016.3 303.8 1015.1 304 1014.7 304.9 1015.1 305.8L1019.4 324.7 1010.6 322 1008.1 312.4C1008.4 312.2 1008.1 312 1007.9 311.7 1007.5 311.3 1006.8 311 1006.1 311.2 1005.4 311.4 1005 312.3 1004.9 313.2L1007 321 996 317.8C995.3 317.5 994.4 317.9 993.9 318.8 993.9 319.7 994.3 320.7 995 320.9L1005.4 323.9 1000.5 328.5C999.8 329.2 1000 330.3 1000.4 330.8 1001.1 331.5 1002.2 331.7 1002.9 331.1L1009.2 325.1 1017.9 327.8 1004.9 340.2C1004.3 340.8 1004.2 341.7 1004.9 342.4 1005.6 343.1 1006.5 343.1 1007.2 342.5L1021.5 328.8 1029.2 330.8 1033.7 349.9 1028.3 355 1008.8 349.3C1007.9 348.8 1006.8 349.5 1006.7 350.4 1006.3 351.3 1006.9 352 1007.8 352.5L1025.6 357.7 1018.8 364 1010.1 361.3C1009.4 361.1 1008.3 361.8 1008 362.4S1008.4 364.2 1009.3 364.7L1016.1 366.7 1007.9 374.4C1007.3 375.1 1007.5 376.2 1008.1 376.9 1008.6 377.4 1009.7 377.6 1010.4 377L1018.5 369.2 1020.3 376.3C1020.6 377 1021.2 377.7 1022.4 377.5 1023 377.3 1023.7 376.2 1023.5 375.5L1021.3 366.6 1028 360.2 1032.3 378.2C1032.7 379.1 1033.4 379.8 1034.5 379.6 1035.2 379.4 1035.9 378.3 1035.7 377.6L1030.8 357.6 1036.1 352.5 1055 357.9 1056.6 365.7 1042.2 379.3C1041.5 380 1041.5 380.9 1042.2 381.6 1042.8 382.3 1044 382.6 1044.7 381.9L1057.6 369.5 1059.9 378.4 1053.6 384.4C1053 385 1052.9 385.9 1053.6 386.6 1054.3 387.3 1055.2 387.4 1055.9 386.7L1060.7 382.1 1063.2 392.5C1063.4 393.2 1064.5 393.9 1065.2 393.7 1066.1 393.3 1066.8 392.6 1066.4 391.7L1063.9 380.8 1071.3 383C1072.2 383 1073.2 382.6 1073.4 381.9 1073.6 381.3 1073.4 380.6 1073 380.1 1073 380.1 1072.8 379.9 1072.3 379.9L1062.9 376.9 1060.6 368 1079.3 373.2C1080.2 373.7 1081.1 373.3 1081.3 372.2 1081.3 371.7 1081.4 371.3 1080.9 370.8 1080.7 370.6 1080.5 370.3 1080.3 370.1L1059.8 364.4 1058.2 357.1 1072.3 343.6 1080.4 346.1 1085.1 365.5C1085.3 366.6 1086.2 367.1 1087.1 366.6 1088 366.7 1088.5 365.8 1088.3 364.6L1084 347.1 1093 349.6 1095 358.2C1095.2 358.9 1096.1 359.4 1097 359.4 1098 359 1098.7 358.3 1098.2 357.4L1096.8 350.8 1106.5 353.5C1107.4 354 1108.1 353.4 1108.5 352.5 1108.5 352 1108.3 351.3 1107.9 350.9 1107.9 350.9 1107.7 350.6 1107.5 350.4L1097.1 347.4 1102.9 341.9C1103.4 341.5 1103.6 340.3 1103 339.7 1102.3 339 1101.2 339.2 1100.7 339.6L1093.5 346.4 1084.5 343.9 1098.7 330.5C1099.4 329.8 1099.2 328.7 1098.5 328S1096.9 327.3 1096.2 327.9L1080.7 342.7 1073.3 340.5 1068.8 321.4 1074.8 315.6 1094.6 321.6C1095.5 321.6 1096.4 321.2 1096.9 320.3 1096.9 319.8 1096.7 319.1 1096.2 318.7 1096 318.4 1095.8 318.2 1095.4 318.2L1077.6 313 1084.3 306.6 1093.3 309.1C1094 309.3 1094.9 308.9 1095.4 308 1095.4 307.1 1095 306.2 1094.3 305.9L1087.1 303.9 1094.5 296.9C1095 296.4 1095 295.1 1094.6 294.6 1093.9 293.9 1092.6 293.9 1092.1 294.3L1084.7 301.4 1083.3 294.3C1083 294.1 1082.8 293.9 1082.6 293.7 1082.2 293.2 1081.5 292.9 1081 292.9 1080.1 293.4 1079.6 294.3 1079.6 295.2L1081.9 304 1075.2 310.4 1070.9 292.5C1070.7 291.3 1069.8 290.8 1069.1 291.1 1068 291.3 1067.5 292.1 1067.5 293.1L1072.4 313.1 1066.4 318.8 1047.5 313.4 1045.6 305.9 1061.2 291.1C1061.9 290.4 1061.9 289.5 1061.2 288.8 1060.6 288.1 1059.7 288.1 1059 288.8L1044.8 302.2 1042.8 293.1 1050 286.3C1050.4 285.8 1050.5 284.5 1049.8 283.8 1049.1 283.1 1048 283.3 1047.5 283.7L1041.7 289.2 1039.3 278.8C1039.1 278.5 1039.1 278.5 1038.8 278.3 1038.4 277.8 1037.7 277.6 1037.3 277.6 1036.4 278 1035.9 278.9 1036.1 279.6ZM1063.6 321.5L1065.6 322.2 1066 324 1069.7 339.5 1070.1 341.3 1068.7 342.7 1057.4 353.5 1056 354.8 1054.2 354.3 1038.9 349.8 1037.1 349.3 1036.5 347.3 1033 332 1032.4 330 1033.8 328.7 1045.1 317.8 1046.5 316.5 1048.5 317.3 1063.6 321.5Z" fill="rgba(51, 121, 194, 0.58)"></path></g><defs><mask id="SvgjsMask1000"><rect width="1440" height="560" fill="#ffffff"></rect></mask><filter id="SvgjsFilter1001"><feGaussianBlur stdDeviation="1"></feGaussianBlur></filter></defs></svg>